<svg xmlns="http://www.w3.org/2000/svg" viewBox="0 0 111.41 111.41"><defs><style>.cls-1{fill:#efcb35;}.cls-2{stroke:#231f20;stroke-miterlimit:10;}</style></defs><g id="Layer_2" data-name="Layer 2"><g id="Layer_1-2" data-name="Layer 1"><circle class="cls-1" cx="55.71" cy="55.71" r="55.71"/><g id="Layer_2-2" data-name="Layer 2"><g id="Layer_1-2-2" data-name="Layer 1-2"><g id="Layer_2-2-2" data-name="Layer 2-2"><g id="Layer_1-2-2-2" data-name="Layer 1-2-2"><path class="cls-2" d="M84.71,43.71h-1v-5a.94.94,0,0,0-.87-1H55.11L49.41,32a.9.9,0,0,0-.7-.3h-20a1,1,0,0,0-1,.88v5.12h-1a1,1,0,0,0-1,.88V78.71a1,1,0,0,0,.87,1H84.71a.94.94,0,0,0,1-.86h0V44.71a.94.94,0,0,0-.87-1Zm-55-10h18.6l5.7,5.7a.94.94,0,0,0,.7.3h27v4H51.11L45.41,38a.9.9,0,0,0-.7-.3h-15Zm54,44h-56v-38h16.6l5.7,5.7a.94.94,0,0,0,.7.3h33Z"/></g></g></g></g></g></g></svg>