<svg xmlns="http://www.w3.org/2000/svg" viewBox="0 0 111.41 111.41"><defs><style>.cls-1{fill:#efcb35;}.cls-2{fill:#010101;stroke:#231f20;stroke-miterlimit:10;}</style></defs><g id="Layer_2" data-name="Layer 2"><g id="Layer_1-2" data-name="Layer 1"><circle class="cls-1" cx="55.71" cy="55.71" r="55.71"/><path class="cls-2" d="M33.6,88.94V76.7H27.09a3.91,3.91,0,0,1-3.9-3.91V36.38a3.91,3.91,0,0,1,3.9-3.9H84.32a3.91,3.91,0,0,1,3.9,3.9V72.79a3.91,3.91,0,0,1-3.9,3.91H45.84ZM27.09,35.08a1.3,1.3,0,0,0-1.3,1.3V72.79a1.3,1.3,0,0,0,1.3,1.3H36.2v8.57l8.56-8.57H84.32a1.3,1.3,0,0,0,1.3-1.3V36.38a1.3,1.3,0,0,0-1.3-1.3Z"/></g></g></svg>