<svg xmlns="http://www.w3.org/2000/svg" viewBox="0 0 111.41 111.41"><defs><style>.cls-1{fill:#efcb35;}.cls-2{fill:#010101;stroke:#231f20;stroke-miterlimit:10;}</style></defs><g id="Layer_2" data-name="Layer 2"><g id="Layer_1-2" data-name="Layer 1"><circle class="cls-1" cx="55.71" cy="55.71" r="55.71"/><path class="cls-2" d="M69.07,85.26H30.4a4.09,4.09,0,0,1-4-4.1V42.22a3.87,3.87,0,0,1,4-3.87H53.8a.84.84,0,1,1,0,1.67H30.4a2.2,2.2,0,0,0-2.3,2.2V81.16a2.4,2.4,0,0,0,2.3,2.44H69.07a2.46,2.46,0,0,0,2.35-2.44V57.38a.84.84,0,0,1,1.67,0V81.16A4.12,4.12,0,0,1,69.07,85.26ZM35.39,76.82a.85.85,0,0,1-.59-.25.82.82,0,0,1-.16-.94l2.86-6.07a.83.83,0,0,1,.06-.21l4.82-10.42a.76.76,0,0,1,.12-.19.18.18,0,0,1,0-.07L71.48,29.58l1.79-1.82a5.59,5.59,0,0,1,4-1.6A8,8,0,0,1,85,33.31a5.68,5.68,0,0,1-1.57,4.55L81.6,39.69h0L52.5,68.62l-.06.06a.94.94,0,0,1-.18.12L42,73.76l-.09,0,0,0-6.12,2.92A.94.94,0,0,1,35.39,76.82Zm3.2-5.68-1.46,3.1,3.09-1.47Zm.73-1.62L41.81,72,51,67.55l-.24-2.31L47.65,65a1.48,1.48,0,0,1-1.36-1.29l-.4-3.33-2.25-.26Zm13-5.1.19,1.81L79.83,39.1l-1.26-1.25Zm-4.44-1,2.94.19L77.4,36.68l-3-3L47.61,60.79Zm-3-4.75,1.8.2a.87.87,0,0,1,.35.13L73.2,32.48l-1.13-1.14ZM73.24,30.16,81,37.92l1.21-1.23a4,4,0,0,0,1.09-3.25,6.13,6.13,0,0,0-1.82-3.78,6,6,0,0,0-4.19-1.84,4,4,0,0,0-2.84,1.11Z"/></g></g></svg>