<svg xmlns="http://www.w3.org/2000/svg" viewBox="0 0 111.41 111.41"><defs><style>.cls-1{fill:#efcb35;}.cls-2{fill:#010101;fill-rule:evenodd;}</style></defs><g id="Layer_2" data-name="Layer 2"><g id="Layer_1-2" data-name="Layer 1"><circle class="cls-1" cx="55.71" cy="55.71" r="55.71"/><path class="cls-2" d="M30.24,28.12V83.3h2.83V81.89H35.9V83.3h2.83V81.89h8.48v1.4H50v-1.4h2.83v1.4H55.7V67.6a8.49,8.49,0,0,0,7.07-8.36V43.08l9.91,2.8V63.34h0a8.49,8.49,0,1,0,8.5,8.49v-32L55.7,32.3V28.12H52.87v1.42H50V28.12H47.21v1.42H38.73V28.12H35.9v1.42H33.07V28.12Zm2.83,4.25H35.9v4.24H33.07Zm5.66,0h8.48v7.07H38.73Zm11.31,0h2.83v4.24H50Zm7.08,3.3L78.34,41.9V71.83a5.66,5.66,0,1,1-5.66-5.66,6.2,6.2,0,0,1,1.14.11l1.7.35V43.73l-15.57-4.4V59.24a5.66,5.66,0,1,1-5.65-5.66,5.45,5.45,0,0,1,1.14.12l1.69.34Zm-24,3.77H35.9v4.24H33.07Zm17,0h2.83v4.24H50ZM38.73,42.27h8.48v7.07H38.73Zm-5.66,4.24H35.9v4.25H33.07Zm17,0h2.83v4.25H50ZM38.73,52.17h8.48v2.4a8.39,8.39,0,0,0-1.41,4.66H38.73Zm-5.66,1.42H35.9v4.24H33.07Zm0,7.07H35.9V64.9H33.07Zm5.66,1.41H46.3a8.85,8.85,0,0,0,.91,1.82v5.26H38.73Zm-5.66,5.66H35.9V72H33.07Zm17,0h2.83V72H50ZM38.73,72h8.48v7.06H38.73Zm-5.66,2.83H35.9v4.23H33.07Zm17,0h2.83v4.23H50Z"/></g></g></svg>