<svg xmlns="http://www.w3.org/2000/svg" viewBox="0 0 111.41 111.41"><defs><style>.cls-1{fill:#efcb35;}.cls-2{fill:#231f20;stroke:#231f20;stroke-miterlimit:10;}</style></defs><g id="Layer_2" data-name="Layer 2"><g id="Layer_1-2" data-name="Layer 1"><circle class="cls-1" cx="55.71" cy="55.71" r="55.71"/><path class="cls-2" d="M78.16,62.21a4.69,4.69,0,0,0-4.67-4.69,4.58,4.58,0,0,0-2.67.87,4.64,4.64,0,0,0-6-2.59,4.45,4.45,0,0,0-1,.54A4.72,4.72,0,0,0,57.14,54V51.87A9.75,9.75,0,1,0,43.92,48a9.85,9.85,0,0,0,3.88,3.88V67.28l-3.27-3.2a4.69,4.69,0,0,0-7.94,2.67,4.62,4.62,0,0,0,1.07,3.67L47.2,82a15,15,0,0,0,11.64,5.47h5.94A13.44,13.44,0,0,0,78.09,74.08Zm-33.1-19A7.41,7.41,0,1,1,57.14,49V43.26A4.4,4.4,0,0,0,55.77,40a4.67,4.67,0,0,0-7.94,3.34v5.74A7.8,7.8,0,0,1,45.06,43.26ZM72.62,81.83a11,11,0,0,1-7.8,3.2H58.88A12.81,12.81,0,0,1,49,80.42L39.47,68.88A2.13,2.13,0,0,1,38.93,67,2.29,2.29,0,0,1,41.3,65a2.6,2.6,0,0,1,1.66.68l3.88,3.81a2,2,0,0,0,3.33-1.37V43.26a2.37,2.37,0,0,1,2.33-2.33,2.64,2.64,0,0,1,1.67.69,2.19,2.19,0,0,1,.69,1.67V60.34A1.13,1.13,0,0,0,56,61.48h0a1.18,1.18,0,0,0,1.14-1.14V58a2.34,2.34,0,1,1,4.67,0h0v4.4a1.14,1.14,0,1,0,2.27,0V60.07a2.34,2.34,0,0,1,4.67,0v4.41a1.11,1.11,0,0,0,1.11,1.13h0A1.16,1.16,0,0,0,71,64.48V62.21a2.34,2.34,0,0,1,4.68,0V74A10.13,10.13,0,0,1,72.62,81.83Zm-20.08-51a1.13,1.13,0,0,0,1.13-1.12h0V25.12a1.14,1.14,0,1,0-2.27,0h0v4.47a1.1,1.1,0,0,0,1,1.19ZM42,34.46a1.13,1.13,0,0,0,1.59,0h0a1.17,1.17,0,0,0,0-1.65l0,0-3.09-3.13a1.15,1.15,0,0,0-1.63,0l0,0a1.16,1.16,0,0,0,0,1.64l0,0Zm-2,8.8a1.12,1.12,0,0,0-1.11-1.13H34.39a1.12,1.12,0,0,0-1.13,1.11v0a1.17,1.17,0,0,0,1.13,1.14h4.47a1.09,1.09,0,0,0,1.13-1ZM65.91,30.73l0,0a1.16,1.16,0,0,0,0-1.64l0,0a1.17,1.17,0,0,0-1.64,0L61.16,32.2l0,0a1.17,1.17,0,0,0,0,1.65h0a1.13,1.13,0,0,0,1.59,0Zm-1.15,12a1.09,1.09,0,0,0,1.13,1.05h4.47a1.18,1.18,0,0,0,1.14-1.14v0a1.13,1.13,0,0,0-1.14-1.11H65.87a1.12,1.12,0,0,0-1.11,1.13Z"/></g></g></svg>