<svg xmlns="http://www.w3.org/2000/svg" viewBox="0 0 111.41 111.41"><defs><style>.cls-1{fill:#efcb35;}.cls-2{fill:#010101;}</style></defs><g id="Layer_2" data-name="Layer 2"><g id="Layer_1-2" data-name="Layer 1"><circle class="cls-1" cx="55.71" cy="55.71" r="55.71"/><path class="cls-2" d="M85,73.24H74.22V36.48a8,8,0,0,0-7.94-7.94H32.65a8,8,0,0,0-7.94,7.94,1.7,1.7,0,0,0,1.7,1.7H37.19V74.94a8,8,0,0,0,8,7.94H78.76a8,8,0,0,0,7.95-7.94A1.7,1.7,0,0,0,85,73.24ZM32.65,31.94H59.77a7.9,7.9,0,0,0-1.25,2.84H28.44A4.54,4.54,0,0,1,32.65,31.94Zm17,43a4.55,4.55,0,0,1-9.09,0V38.18H60a1.7,1.7,0,0,0,1.7-1.7,4.54,4.54,0,1,1,9.08,0V73.24H51.38A1.7,1.7,0,0,0,49.68,74.94Zm29.08,4.54H51.65a7.79,7.79,0,0,0,1.24-2.84H83A4.57,4.57,0,0,1,78.76,79.48Z"/></g></g></svg>