<svg xmlns="http://www.w3.org/2000/svg" viewBox="0 0 111.41 111.41"><defs><style>.cls-1{fill:#efcb35;}.cls-2{fill:#010101;}</style></defs><g id="Layer_2" data-name="Layer 2"><g id="Layer_1-2" data-name="Layer 1"><circle class="cls-1" cx="55.71" cy="55.71" r="55.71"/><circle class="cls-2" cx="34.48" cy="40.42" r="3.58"/><circle class="cls-2" cx="45.88" cy="42.99" r="3.58"/><circle class="cls-2" cx="37.73" cy="48.16" r="3.58"/><circle class="cls-2" cx="23.11" cy="62.31" r="3.58"/><circle class="cls-2" cx="24.77" cy="53.51" r="3.58"/><circle class="cls-2" cx="51.22" cy="33.7" r="3.58"/><circle class="cls-2" cx="55.7" cy="40.74" r="3.58"/><circle class="cls-2" cx="32.72" cy="56.5" r="3.58"/><circle class="cls-2" cx="30.68" cy="65.65" r="3.58"/><circle class="cls-2" cx="41.86" cy="35.72" r="3.58"/><circle class="cls-2" cx="28.63" cy="46.43" r="3.58"/><circle class="cls-2" cx="76.93" cy="40.42" r="3.58"/><circle class="cls-2" cx="65.53" cy="42.99" r="3.58"/><circle class="cls-2" cx="73.69" cy="48.16" r="3.58"/><circle class="cls-2" cx="88.3" cy="62.31" r="3.58"/><circle class="cls-2" cx="86.64" cy="53.51" r="3.58"/><circle class="cls-2" cx="60.2" cy="33.7" r="3.58"/><circle class="cls-2" cx="78.7" cy="56.5" r="3.58"/><circle class="cls-2" cx="80.76" cy="65.71" r="3.58"/><circle class="cls-2" cx="69.7" cy="35.69" r="3.59"/><circle class="cls-2" cx="82.78" cy="46.43" r="3.58"/></g></g></svg>