<svg xmlns="http://www.w3.org/2000/svg" viewBox="0 0 111.41 111.41"><defs><style>.cls-1{fill:#efcb35;}.cls-2{fill:#010101;stroke:#231f20;stroke-miterlimit:10;}</style></defs><g id="Layer_2" data-name="Layer 2"><g id="Layer_1-2" data-name="Layer 1"><circle class="cls-1" cx="55.71" cy="55.71" r="55.71"/><path class="cls-2" d="M81.74,35H75.58V24L64.46,35h-22a5.61,5.61,0,0,0-5.6,5.6v1.91H29.6A5.61,5.61,0,0,0,24,48.06V70.87a5.61,5.61,0,0,0,5.59,5.59h6.17V87.37L47,76.46h22a5.6,5.6,0,0,0,5.59-5.59V69h7.3a5.62,5.62,0,0,0,4-1.62,2.13,2.13,0,0,0,.35-.43,5.7,5.7,0,0,0,1.28-3.54V40.55A5.63,5.63,0,0,0,81.74,35Zm3.54,28.48a3.81,3.81,0,0,1-.56,2A3.57,3.57,0,0,1,81.81,67H42.5A3.48,3.48,0,0,1,39,63.5v-23a3.48,3.48,0,0,1,3.48-3.47H65.31l.63-.64,7.58-7.37V35h0v2.13h8.29a3.48,3.48,0,0,1,3.47,3.47Z"/><path class="cls-2" d="M61.34,42.39a6.26,6.26,0,0,0-4,1.27,4.18,4.18,0,0,0-1.49,2.84.66.66,0,0,0,.64.71h1.77a.68.68,0,0,0,.64-.57,1.62,1.62,0,0,1,.64-1.13,3.1,3.1,0,0,1,1.84-.57,2.26,2.26,0,0,1,2.55,2.55,3.49,3.49,0,0,1-.57,1.91,10.61,10.61,0,0,1-1.56,1.84A6.8,6.8,0,0,0,60,53.16a4.38,4.38,0,0,0-.35,1.91.7.7,0,0,0,.64.71h1.77a.64.64,0,0,0,.63-.64,4.28,4.28,0,0,1,.15-1.06,3.14,3.14,0,0,1,.92-1.21,12.69,12.69,0,0,0,2.34-2.48,5,5,0,0,0,.92-3,4.72,4.72,0,0,0-1.49-3.76A6.66,6.66,0,0,0,61.34,42.39Z"/><circle class="cls-2" cx="61.06" cy="60.03" r="1.7"/></g></g></svg>