<svg xmlns="http://www.w3.org/2000/svg" viewBox="0 0 111.41 111.41"><defs><style>.cls-1{fill:#efcb35;}.cls-2{fill:#010101;}</style></defs><g id="Layer_2" data-name="Layer 2"><g id="Layer_1-2" data-name="Layer 1"><circle class="cls-1" cx="55.71" cy="55.71" r="55.71"/><path class="cls-2" d="M81.48,50.29H78.64a6.66,6.66,0,0,0-1.85-3.42,6.79,6.79,0,0,0-1-.85,5.43,5.43,0,1,0-7.68-.1.47.47,0,0,0,.1.1,6.78,6.78,0,0,0-2.86,4.27h-3a6.66,6.66,0,0,0-1.85-3.42,6.79,6.79,0,0,0-1-.85,5.43,5.43,0,1,0-7.68-.1l.1.1a6.78,6.78,0,0,0-2.86,4.27h-3a6.66,6.66,0,0,0-1.85-3.42,6.79,6.79,0,0,0-1-.85,5.43,5.43,0,1,0-7.68-.1l.1.1a6.78,6.78,0,0,0-2.86,4.27H29.93a1.35,1.35,0,0,0-1.36,1.35h0v5.43a1.36,1.36,0,0,0,1.36,1.36h1.36V73.35a1.35,1.35,0,0,0,1.35,1.36H78.77a1.36,1.36,0,0,0,1.36-1.36h0V58.43h1.35a1.36,1.36,0,0,0,1.36-1.36h0V51.64a1.35,1.35,0,0,0-1.35-1.35ZM69.27,42.15A2.72,2.72,0,1,1,72,44.86,2.72,2.72,0,0,1,69.27,42.15ZM72,47.57a4,4,0,0,1,2.88,1.22,3.9,3.9,0,0,1,1,1.5H68.15A4.07,4.07,0,0,1,72,47.57ZM53,42.15a2.72,2.72,0,1,1,2.72,2.71A2.72,2.72,0,0,1,53,42.15Zm2.72,5.42a4,4,0,0,1,2.88,1.22,3.9,3.9,0,0,1,1,1.5H51.87A4.07,4.07,0,0,1,55.71,47.57Zm-19-5.42a2.72,2.72,0,1,1,2.72,2.71A2.72,2.72,0,0,1,36.71,42.15Zm2.72,5.42a4,4,0,0,1,2.88,1.22,3.9,3.9,0,0,1,1,1.5H35.59A4.07,4.07,0,0,1,39.43,47.57ZM77.41,72H34V58.43H77.41Zm2.72-16.28H31.29V53H80.13Z"/></g></g></svg>