<svg xmlns="http://www.w3.org/2000/svg" viewBox="0 0 111.41 111.41"><defs><style>.cls-1{fill:#efcb35;}.cls-2{fill:#010101;}</style></defs><g id="Layer_2" data-name="Layer 2"><g id="Layer_1-2" data-name="Layer 1"><circle class="cls-1" cx="55.71" cy="55.71" r="55.71"/><path class="cls-2" d="M85.5,51.79H82.37V45.51a1.57,1.57,0,0,0-3.14,0h0v1.57H69.82V39a1.43,1.43,0,0,0-.47-1.1L61.51,30.3a1.6,1.6,0,0,0-1.1-.47H43.16a1.59,1.59,0,0,0-1.57,1.57V47.08h-9.4V45.51a1.57,1.57,0,0,0-3.14,0v6.28H25.91a1.57,1.57,0,0,0,0,3.13h3.14v10.2a1.57,1.57,0,0,0,3.14,0V63.55h3.13V80a1.58,1.58,0,0,0,1.57,1.57H74.52A1.57,1.57,0,0,0,76.09,80V63.55h3.14v1.57a1.57,1.57,0,0,0,3.14,0h0V54.92H85.5a1.57,1.57,0,1,0,0-3.13ZM44.73,33H59.78l6.9,6.74v7.37h-22ZM73,62V78.44H38.46V58.84H73Zm6.27-1.57H76.09V57.28a1.57,1.57,0,0,0-1.57-1.57H36.89a1.58,1.58,0,0,0-1.57,1.57v3.13H32.19V50.22h47Z"/><path class="cls-2" d="M43.16,63.55h3.92v3.92H43.16Zm7.06,0h3.92v3.92H50.22Zm7.06,0H61.2v3.92H57.28Zm7,0h3.92v3.92H64.33Zm-21.17,7h3.92v3.92H43.16Zm7.06,0h3.92v3.92H50.22Zm7.06,0H61.2v3.92H57.28Zm7,0h3.92v3.92H64.33Z"/></g></g></svg>